<svg width="146" height="24" viewBox="0 0 146 24" fill="none" xmlns="http://www.w3.org/2000/svg">
<path d="M40.014 16.809V8.55303C40.014 6.97603 40.38 5.73303 41.112 4.82303C41.845 3.91303 42.762 3.45803 43.862 3.45803C46.02 3.45803 47.099 5.03503 47.099 8.18903V16.809H50.881V7.22903C50.881 4.81403 50.381 3.00903 49.378 1.81203C48.376 0.615029 46.945 0.0170286 45.084 0.0170286C43.862 0.0170286 42.744 0.251029 41.732 0.720029C40.7257 1.18342 39.8471 1.88456 39.172 2.76303H39.106C38.126 0.932029 36.486 0.0170286 34.184 0.0170286C33.215 0.0170286 32.282 0.234029 31.385 0.670029C30.4733 1.11731 29.6703 1.75823 29.032 2.54803H28.982V0.265029H25.2V16.792H28.982V8.55303C28.982 6.97603 29.354 5.73303 30.097 4.82303C30.84 3.91303 31.79 3.45803 32.946 3.45803C35.136 3.45803 36.232 5.03503 36.232 8.18903V16.809H40.014ZM61.115 17.057C63.361 17.057 65.112 16.23 66.367 14.575H66.417V16.792H70.033V0.265029H66.251V2.25003H66.185C64.93 0.761029 63.23 0.0170286 61.082 0.0170286C60.0202 0.00948827 58.9682 0.219928 57.991 0.635325C57.0139 1.05072 56.1323 1.66224 55.401 2.43203C54.696 3.18203 54.141 4.09203 53.733 5.16203C53.3204 6.2616 53.1133 7.42762 53.122 8.60203C53.122 9.86003 53.325 11.018 53.732 12.077C54.14 13.136 54.696 14.029 55.401 14.757C56.1181 15.4934 56.9817 16.0712 57.936 16.453C58.9463 16.8605 60.0257 17.0657 61.115 17.057ZM61.71 13.616C60.311 13.616 59.172 13.15 58.291 12.218C57.411 11.286 56.97 10.086 56.97 8.61903C56.97 7.06403 57.424 5.81503 58.332 4.87203C59.241 3.92903 60.372 3.45803 61.726 3.45803C63.069 3.45803 64.184 3.95103 65.071 4.93803C65.957 5.92603 66.401 7.15303 66.401 8.61903C66.401 10.086 65.946 11.286 65.038 12.218C64.129 13.15 63.02 13.616 61.71 13.616ZM88.822 16.809V7.06403C88.822 4.67103 88.286 2.89803 87.212 1.74503C86.14 0.593029 84.655 0.0170286 82.762 0.0170286C81.709 0.0113238 80.6669 0.231258 79.706 0.662029C78.7501 1.09092 77.9034 1.73015 77.229 2.53203H77.179V0.264029H73.397V16.791H77.179V8.48703C77.179 6.89903 77.567 5.66403 78.343 4.78103C79.12 3.89903 80.157 3.45803 81.456 3.45803C82.051 3.45803 82.56 3.53503 82.984 3.68903C83.408 3.84403 83.78 4.09503 84.099 4.44203C84.419 4.79003 84.655 5.26103 84.809 5.85703C84.963 6.45203 85.04 7.18003 85.04 8.04003V16.809H88.822ZM99.04 17.057C101.286 17.057 103.036 16.23 104.292 14.575H104.342V16.792H107.958V0.265029H104.176V2.25003H104.11C102.855 0.761029 101.154 0.0170286 99.007 0.0170286C97.9451 0.00935115 96.8929 0.219725 95.9155 0.635126C94.9381 1.05053 94.0565 1.66211 93.325 2.43203C92.621 3.18203 92.065 4.09203 91.657 5.16203C91.2447 6.26167 91.038 7.42768 91.047 8.60203C91.047 9.86003 91.25 11.018 91.657 12.077C92.065 13.136 92.621 14.029 93.325 14.757C94.0424 15.4936 94.9063 16.0713 95.861 16.453C96.871 16.8603 97.951 17.0656 99.04 17.057ZM99.634 13.616C98.236 13.616 97.096 13.15 96.216 12.218C95.335 11.286 94.894 10.086 94.894 8.61903C94.894 7.06403 95.349 5.81503 96.257 4.87203C97.165 3.92903 98.297 3.45803 99.651 3.45803C100.994 3.45803 102.109 3.95103 102.995 4.93803C103.881 5.92603 104.325 7.15303 104.325 8.61903C104.325 10.086 103.87 11.286 102.962 12.218C102.054 13.15 100.944 13.616 99.634 13.616ZM118.704 23.741C119.904 23.741 120.978 23.601 121.924 23.319C122.871 23.038 123.667 22.646 124.311 22.144C124.959 21.6382 125.503 21.0121 125.913 20.3C126.342 19.5588 126.651 18.7546 126.829 17.917C127.017 17.057 127.11 16.114 127.11 15.088V0.265029H123.328V2.00203H123.262C122.584 1.35403 121.785 0.847504 120.909 0.512029C120.026 0.171062 119.088 -0.00256463 118.142 2.86254e-05C116.634 2.86254e-05 115.28 0.358029 114.08 1.07503C112.88 1.79203 111.946 2.78803 111.28 4.06203C110.614 5.33503 110.281 6.76703 110.281 8.35503C110.281 9.96503 110.631 11.393 111.33 12.64C112.029 13.886 112.99 14.843 114.212 15.51C115.434 16.177 116.81 16.511 118.341 16.511C120.388 16.511 122.057 15.838 123.345 14.493H123.411V16.246C123.411 17.416 122.981 18.386 122.123 19.158C121.263 19.93 120.053 20.316 118.489 20.316C117.421 20.316 116.483 20.184 115.673 19.919C114.864 19.654 113.931 19.241 112.874 18.679L111.982 22.02C112.907 22.572 113.948 22.996 115.104 23.294C116.26 23.592 117.46 23.741 118.704 23.741ZM118.836 13.021C117.471 13.021 116.345 12.587 115.459 11.721C114.572 10.856 114.129 9.69503 114.129 8.23903C114.129 6.83903 114.564 5.69703 115.434 4.81403C116.304 3.93203 117.438 3.49103 118.836 3.49103C120.168 3.49103 121.278 3.92603 122.164 4.79803C123.05 5.66903 123.494 6.80003 123.494 8.18903C123.494 9.59003 123.061 10.745 122.197 11.655C121.333 12.565 120.212 13.021 118.836 13.021ZM137.922 17.057C139.464 17.057 140.821 16.776 141.993 16.213C143.166 15.651 144.126 14.89 144.875 13.93L142.233 11.664C141.198 12.965 139.827 13.616 138.12 13.616C136.91 13.616 135.883 13.279 135.04 12.606C134.198 11.934 133.656 11.013 133.413 9.84403H145.437C145.503 9.44703 145.536 8.94403 145.536 8.33803C145.536 6.73903 145.211 5.31103 144.561 4.05303C143.931 2.81595 142.956 1.78764 141.754 1.09203C140.532 0.375029 139.122 0.0170286 137.526 0.0170286C136.433 0.00883848 135.349 0.219648 134.338 0.637029C133.348 1.05103 132.494 1.62703 131.778 2.36603C131.063 3.10503 130.501 4.00403 130.094 5.06203C129.687 6.12203 129.483 7.27403 129.483 8.52003C129.483 10.208 129.852 11.705 130.589 13.012C131.327 14.319 132.335 15.32 133.612 16.015C134.889 16.71 136.326 17.057 137.922 17.057ZM141.737 6.78303H133.48C133.744 5.72403 134.256 4.90503 135.015 4.32603C135.775 3.74703 136.678 3.45803 137.724 3.45803C138.781 3.45803 139.654 3.75603 140.342 4.35103C141.03 4.94703 141.495 5.75703 141.737 6.78303Z" fill="#FCFCFC"/>
<path fill-rule="evenodd" clip-rule="evenodd" d="M2.786 10.286C4.324 10.286 5.571 11.565 5.571 13.143C5.571 14.72 4.324 16 2.786 16C1.247 16 0 14.72 0 13.143C0 11.565 1.247 10.286 2.786 10.286ZM2.786 0C4.324 0 5.57 1.28 5.57 2.857C5.57 4.435 4.323 5.714 2.785 5.714C1.247 5.714 0 4.435 0 2.857C0 1.28 1.247 0 2.786 0ZM12.814 0C14.353 0 15.6 1.28 15.6 2.857C15.6 4.435 14.353 5.714 12.814 5.714C11.276 5.714 10.029 4.435 10.029 2.857C10.029 1.28 11.276 0 12.814 0Z" fill="#F3603C"/>
<path opacity="0.5" d="M12.814 16.1139C14.3527 16.1139 15.6 14.8348 15.6 13.2569C15.6 11.679 14.3527 10.3999 12.814 10.3999C11.2754 10.3999 10.028 11.679 10.028 13.2569C10.028 14.8348 11.2754 16.1139 12.814 16.1139Z" fill="#F3603C"/>
</svg>
